<mxfile host="app.diagrams.net" modified="2021-11-17T11:33:17.899Z" agent="5.0 (Windows NT 10.0; Win64; x64) AppleWebKit/537.36 (KHTML, like Gecko) Chrome/95.0.4638.69 Safari/537.36" etag="m6DfPVvwwxxeRsx_htiF" version="15.7.4" type="github">
  <diagram id="oW-fHzXB0XqupBl2FvEl" name="Page-1">
    <mxGraphModel dx="1245" dy="693" grid="1" gridSize="10" guides="1" tooltips="1" connect="1" arrows="1" fold="1" page="1" pageScale="1" pageWidth="827" pageHeight="1169" math="0" shadow="0">
      <root>
        <mxCell id="0" />
        <mxCell id="1" parent="0" />
        <mxCell id="fJtaRyN5ISk2u794oa8O-1" value="Recruiter" style="rounded=0;whiteSpace=wrap;html=1;" vertex="1" parent="1">
          <mxGeometry x="160" y="375" width="80" height="40" as="geometry" />
        </mxCell>
        <mxCell id="fJtaRyN5ISk2u794oa8O-3" value="Resume&lt;br&gt;Search" style="rhombus;whiteSpace=wrap;html=1;" vertex="1" parent="1">
          <mxGeometry x="160" y="575" width="80" height="80" as="geometry" />
        </mxCell>
        <mxCell id="fJtaRyN5ISk2u794oa8O-4" value="" style="endArrow=none;html=1;rounded=0;entryX=0.5;entryY=1;entryDx=0;entryDy=0;exitX=0.5;exitY=0;exitDx=0;exitDy=0;" edge="1" parent="1" source="fJtaRyN5ISk2u794oa8O-3" target="fJtaRyN5ISk2u794oa8O-1">
          <mxGeometry width="50" height="50" relative="1" as="geometry">
            <mxPoint x="700" y="665" as="sourcePoint" />
            <mxPoint x="750" y="615" as="targetPoint" />
          </mxGeometry>
        </mxCell>
        <mxCell id="fJtaRyN5ISk2u794oa8O-5" value="" style="endArrow=none;html=1;rounded=0;entryX=0.5;entryY=1;entryDx=0;entryDy=0;exitX=0.5;exitY=0;exitDx=0;exitDy=0;" edge="1" parent="1" source="fJtaRyN5ISk2u794oa8O-6" target="fJtaRyN5ISk2u794oa8O-3">
          <mxGeometry width="50" height="50" relative="1" as="geometry">
            <mxPoint x="280" y="735" as="sourcePoint" />
            <mxPoint x="750" y="615" as="targetPoint" />
            <Array as="points" />
          </mxGeometry>
        </mxCell>
        <mxCell id="fJtaRyN5ISk2u794oa8O-6" value="Evaluated&lt;br&gt;Resumes" style="rounded=0;whiteSpace=wrap;html=1;" vertex="1" parent="1">
          <mxGeometry x="165" y="735" width="70" height="40" as="geometry" />
        </mxCell>
        <mxCell id="fJtaRyN5ISk2u794oa8O-7" value="" style="endArrow=none;html=1;rounded=0;exitX=1;exitY=0.5;exitDx=0;exitDy=0;startArrow=none;" edge="1" parent="1" source="fJtaRyN5ISk2u794oa8O-8">
          <mxGeometry width="50" height="50" relative="1" as="geometry">
            <mxPoint x="700" y="665" as="sourcePoint" />
            <mxPoint x="360" y="615" as="targetPoint" />
          </mxGeometry>
        </mxCell>
        <mxCell id="fJtaRyN5ISk2u794oa8O-8" value="Resumes" style="rounded=0;whiteSpace=wrap;html=1;" vertex="1" parent="1">
          <mxGeometry x="260" y="595" width="80" height="40" as="geometry" />
        </mxCell>
        <mxCell id="fJtaRyN5ISk2u794oa8O-9" value="" style="endArrow=none;html=1;rounded=0;exitX=1;exitY=0.5;exitDx=0;exitDy=0;" edge="1" parent="1" source="fJtaRyN5ISk2u794oa8O-3" target="fJtaRyN5ISk2u794oa8O-8">
          <mxGeometry width="50" height="50" relative="1" as="geometry">
            <mxPoint x="320" y="615" as="sourcePoint" />
            <mxPoint x="400" y="615" as="targetPoint" />
          </mxGeometry>
        </mxCell>
        <mxCell id="fJtaRyN5ISk2u794oa8O-10" value="Load/Update&lt;br&gt;Resume" style="rhombus;whiteSpace=wrap;html=1;" vertex="1" parent="1">
          <mxGeometry x="360" y="575" width="80" height="80" as="geometry" />
        </mxCell>
        <mxCell id="fJtaRyN5ISk2u794oa8O-11" value="Registered&lt;br&gt;User" style="rounded=0;whiteSpace=wrap;html=1;" vertex="1" parent="1">
          <mxGeometry x="460" y="595" width="80" height="40" as="geometry" />
        </mxCell>
        <mxCell id="fJtaRyN5ISk2u794oa8O-12" value="" style="shape=requiredInterface;html=1;verticalLabelPosition=bottom;sketch=0;rotation=90;" vertex="1" parent="1">
          <mxGeometry x="495" y="665" width="10" height="20" as="geometry" />
        </mxCell>
        <mxCell id="fJtaRyN5ISk2u794oa8O-13" value="" style="endArrow=none;html=1;rounded=0;exitX=1;exitY=0.5;exitDx=0;exitDy=0;entryX=0;entryY=0.5;entryDx=0;entryDy=0;" edge="1" parent="1" source="fJtaRyN5ISk2u794oa8O-10" target="fJtaRyN5ISk2u794oa8O-11">
          <mxGeometry width="50" height="50" relative="1" as="geometry">
            <mxPoint x="680" y="645" as="sourcePoint" />
            <mxPoint x="730" y="595" as="targetPoint" />
          </mxGeometry>
        </mxCell>
        <mxCell id="fJtaRyN5ISk2u794oa8O-16" value="Non institutional site users" style="rounded=0;whiteSpace=wrap;html=1;" vertex="1" parent="1">
          <mxGeometry x="460" y="735" width="80" height="40" as="geometry" />
        </mxCell>
        <mxCell id="fJtaRyN5ISk2u794oa8O-17" value="" style="endArrow=none;html=1;rounded=0;exitX=0.5;exitY=1;exitDx=0;exitDy=0;entryX=0.5;entryY=0;entryDx=0;entryDy=0;" edge="1" parent="1" source="fJtaRyN5ISk2u794oa8O-11" target="fJtaRyN5ISk2u794oa8O-16">
          <mxGeometry width="50" height="50" relative="1" as="geometry">
            <mxPoint x="680" y="635" as="sourcePoint" />
            <mxPoint x="730" y="585" as="targetPoint" />
          </mxGeometry>
        </mxCell>
        <mxCell id="fJtaRyN5ISk2u794oa8O-18" value="" style="endArrow=none;html=1;rounded=0;exitX=0.5;exitY=0;exitDx=0;exitDy=0;" edge="1" parent="1" source="fJtaRyN5ISk2u794oa8O-11">
          <mxGeometry width="50" height="50" relative="1" as="geometry">
            <mxPoint x="680" y="635" as="sourcePoint" />
            <mxPoint x="500" y="535" as="targetPoint" />
          </mxGeometry>
        </mxCell>
        <mxCell id="fJtaRyN5ISk2u794oa8O-19" value="Apply" style="rhombus;whiteSpace=wrap;html=1;" vertex="1" parent="1">
          <mxGeometry x="460" y="455" width="80" height="80" as="geometry" />
        </mxCell>
        <mxCell id="fJtaRyN5ISk2u794oa8O-21" value="Application&lt;br&gt;History" style="rounded=0;whiteSpace=wrap;html=1;" vertex="1" parent="1">
          <mxGeometry x="600" y="475" width="80" height="40" as="geometry" />
        </mxCell>
        <mxCell id="fJtaRyN5ISk2u794oa8O-22" value="Advert" style="rounded=0;whiteSpace=wrap;html=1;" vertex="1" parent="1">
          <mxGeometry x="460" y="375" width="80" height="40" as="geometry" />
        </mxCell>
        <mxCell id="fJtaRyN5ISk2u794oa8O-24" value="" style="endArrow=none;html=1;rounded=0;entryX=0.5;entryY=1;entryDx=0;entryDy=0;exitX=0.5;exitY=0;exitDx=0;exitDy=0;" edge="1" parent="1" source="fJtaRyN5ISk2u794oa8O-19" target="fJtaRyN5ISk2u794oa8O-22">
          <mxGeometry width="50" height="50" relative="1" as="geometry">
            <mxPoint x="680" y="625" as="sourcePoint" />
            <mxPoint x="730" y="575" as="targetPoint" />
          </mxGeometry>
        </mxCell>
        <mxCell id="fJtaRyN5ISk2u794oa8O-25" value="" style="endArrow=none;html=1;rounded=0;exitX=1;exitY=0.5;exitDx=0;exitDy=0;" edge="1" parent="1" source="fJtaRyN5ISk2u794oa8O-1">
          <mxGeometry width="50" height="50" relative="1" as="geometry">
            <mxPoint x="680" y="625" as="sourcePoint" />
            <mxPoint x="320" y="395" as="targetPoint" />
          </mxGeometry>
        </mxCell>
        <mxCell id="fJtaRyN5ISk2u794oa8O-26" value="Post" style="rhombus;whiteSpace=wrap;html=1;" vertex="1" parent="1">
          <mxGeometry x="310" y="355" width="80" height="80" as="geometry" />
        </mxCell>
        <mxCell id="fJtaRyN5ISk2u794oa8O-28" value="" style="endArrow=none;html=1;rounded=0;exitX=1;exitY=0.5;exitDx=0;exitDy=0;entryX=0;entryY=0.5;entryDx=0;entryDy=0;" edge="1" parent="1" source="fJtaRyN5ISk2u794oa8O-26" target="fJtaRyN5ISk2u794oa8O-22">
          <mxGeometry width="50" height="50" relative="1" as="geometry">
            <mxPoint x="680" y="625" as="sourcePoint" />
            <mxPoint x="730" y="575" as="targetPoint" />
          </mxGeometry>
        </mxCell>
        <mxCell id="fJtaRyN5ISk2u794oa8O-32" value="Universities" style="rounded=0;whiteSpace=wrap;html=1;" vertex="1" parent="1">
          <mxGeometry x="116" y="270" width="70" height="30" as="geometry" />
        </mxCell>
        <mxCell id="fJtaRyN5ISk2u794oa8O-33" value="Research&lt;br&gt;Institutions" style="rounded=0;whiteSpace=wrap;html=1;" vertex="1" parent="1">
          <mxGeometry x="216" y="270" width="70" height="30" as="geometry" />
        </mxCell>
        <mxCell id="fJtaRyN5ISk2u794oa8O-44" value="" style="endArrow=none;html=1;rounded=0;exitX=0.5;exitY=0;exitDx=0;exitDy=0;entryX=0.5;entryY=1;entryDx=0;entryDy=0;" edge="1" parent="1" source="fJtaRyN5ISk2u794oa8O-1" target="fJtaRyN5ISk2u794oa8O-45">
          <mxGeometry width="50" height="50" relative="1" as="geometry">
            <mxPoint x="516" y="550" as="sourcePoint" />
            <mxPoint x="200" y="350" as="targetPoint" />
          </mxGeometry>
        </mxCell>
        <mxCell id="fJtaRyN5ISk2u794oa8O-45" value="d" style="ellipse;whiteSpace=wrap;html=1;aspect=fixed;" vertex="1" parent="1">
          <mxGeometry x="190" y="330" width="20" height="20" as="geometry" />
        </mxCell>
        <mxCell id="fJtaRyN5ISk2u794oa8O-48" value="" style="endArrow=none;html=1;rounded=0;exitX=1;exitY=0;exitDx=0;exitDy=0;entryX=1;entryY=0.5;entryDx=0;entryDy=0;entryPerimeter=0;" edge="1" parent="1" source="fJtaRyN5ISk2u794oa8O-45" target="fJtaRyN5ISk2u794oa8O-55">
          <mxGeometry width="50" height="50" relative="1" as="geometry">
            <mxPoint x="516" y="550" as="sourcePoint" />
            <mxPoint x="226" y="320" as="targetPoint" />
          </mxGeometry>
        </mxCell>
        <mxCell id="fJtaRyN5ISk2u794oa8O-50" value="" style="endArrow=none;html=1;rounded=0;exitX=0;exitY=0;exitDx=0;exitDy=0;entryX=1;entryY=0.5;entryDx=0;entryDy=0;entryPerimeter=0;" edge="1" parent="1" source="fJtaRyN5ISk2u794oa8O-45" target="fJtaRyN5ISk2u794oa8O-53">
          <mxGeometry width="50" height="50" relative="1" as="geometry">
            <mxPoint x="516" y="550" as="sourcePoint" />
            <mxPoint x="566" y="500" as="targetPoint" />
          </mxGeometry>
        </mxCell>
        <mxCell id="fJtaRyN5ISk2u794oa8O-53" value="" style="shape=requiredInterface;html=1;verticalLabelPosition=bottom;sketch=0;rotation=-123;" vertex="1" parent="1">
          <mxGeometry x="165" y="310" width="10" height="20" as="geometry" />
        </mxCell>
        <mxCell id="fJtaRyN5ISk2u794oa8O-54" value="" style="endArrow=none;html=1;rounded=0;exitX=1;exitY=0.5;exitDx=0;exitDy=0;exitPerimeter=0;entryX=0.5;entryY=1;entryDx=0;entryDy=0;" edge="1" parent="1" source="fJtaRyN5ISk2u794oa8O-53" target="fJtaRyN5ISk2u794oa8O-32">
          <mxGeometry width="50" height="50" relative="1" as="geometry">
            <mxPoint x="516" y="550" as="sourcePoint" />
            <mxPoint x="566" y="500" as="targetPoint" />
          </mxGeometry>
        </mxCell>
        <mxCell id="fJtaRyN5ISk2u794oa8O-55" value="" style="shape=requiredInterface;html=1;verticalLabelPosition=bottom;sketch=0;rotation=-60;" vertex="1" parent="1">
          <mxGeometry x="225" y="310" width="10" height="20" as="geometry" />
        </mxCell>
        <mxCell id="fJtaRyN5ISk2u794oa8O-56" value="" style="endArrow=none;html=1;rounded=0;exitX=1;exitY=0.5;exitDx=0;exitDy=0;exitPerimeter=0;entryX=0.5;entryY=1;entryDx=0;entryDy=0;" edge="1" parent="1" source="fJtaRyN5ISk2u794oa8O-55" target="fJtaRyN5ISk2u794oa8O-33">
          <mxGeometry width="50" height="50" relative="1" as="geometry">
            <mxPoint x="516" y="550" as="sourcePoint" />
            <mxPoint x="566" y="500" as="targetPoint" />
          </mxGeometry>
        </mxCell>
        <mxCell id="fJtaRyN5ISk2u794oa8O-57" value="Academic&lt;br&gt;Activities" style="rounded=0;whiteSpace=wrap;html=1;" vertex="1" parent="1">
          <mxGeometry x="20" y="535" width="90" height="40" as="geometry" />
        </mxCell>
        <mxCell id="fJtaRyN5ISk2u794oa8O-58" value="" style="endArrow=none;html=1;rounded=0;entryX=0;entryY=0.5;entryDx=0;entryDy=0;exitX=1;exitY=0.5;exitDx=0;exitDy=0;" edge="1" parent="1" source="fJtaRyN5ISk2u794oa8O-19" target="fJtaRyN5ISk2u794oa8O-21">
          <mxGeometry width="50" height="50" relative="1" as="geometry">
            <mxPoint x="495" y="530" as="sourcePoint" />
            <mxPoint x="545" y="480" as="targetPoint" />
          </mxGeometry>
        </mxCell>
        <mxCell id="fJtaRyN5ISk2u794oa8O-62" value="Organize" style="rhombus;whiteSpace=wrap;html=1;" vertex="1" parent="1">
          <mxGeometry x="40" y="440" width="50" height="50" as="geometry" />
        </mxCell>
        <mxCell id="fJtaRyN5ISk2u794oa8O-63" value="" style="endArrow=none;html=1;rounded=0;entryX=0.5;entryY=1;entryDx=0;entryDy=0;exitX=0.5;exitY=0;exitDx=0;exitDy=0;" edge="1" parent="1" source="fJtaRyN5ISk2u794oa8O-57" target="fJtaRyN5ISk2u794oa8O-62">
          <mxGeometry width="50" height="50" relative="1" as="geometry">
            <mxPoint x="495" y="530" as="sourcePoint" />
            <mxPoint x="545" y="480" as="targetPoint" />
          </mxGeometry>
        </mxCell>
        <mxCell id="fJtaRyN5ISk2u794oa8O-64" value="" style="endArrow=none;html=1;rounded=0;exitX=0.5;exitY=0;exitDx=0;exitDy=0;entryX=0;entryY=0.5;entryDx=0;entryDy=0;" edge="1" parent="1" source="fJtaRyN5ISk2u794oa8O-62" target="fJtaRyN5ISk2u794oa8O-1">
          <mxGeometry width="50" height="50" relative="1" as="geometry">
            <mxPoint x="495" y="530" as="sourcePoint" />
            <mxPoint x="155" y="400" as="targetPoint" />
            <Array as="points">
              <mxPoint x="65" y="395" />
            </Array>
          </mxGeometry>
        </mxCell>
        <mxCell id="fJtaRyN5ISk2u794oa8O-68" value="" style="endArrow=none;html=1;rounded=0;exitX=0.5;exitY=0;exitDx=0;exitDy=0;entryX=0.5;entryY=0;entryDx=0;entryDy=0;" edge="1" parent="1" source="fJtaRyN5ISk2u794oa8O-32" target="fJtaRyN5ISk2u794oa8O-70">
          <mxGeometry width="50" height="50" relative="1" as="geometry">
            <mxPoint x="495" y="520" as="sourcePoint" />
            <mxPoint x="605" y="260" as="targetPoint" />
            <Array as="points">
              <mxPoint x="151" y="240" />
              <mxPoint x="690" y="240" />
            </Array>
          </mxGeometry>
        </mxCell>
        <mxCell id="fJtaRyN5ISk2u794oa8O-70" value="Offer" style="rhombus;whiteSpace=wrap;html=1;" vertex="1" parent="1">
          <mxGeometry x="665" y="280" width="50" height="50" as="geometry" />
        </mxCell>
        <mxCell id="fJtaRyN5ISk2u794oa8O-72" value="" style="endArrow=none;html=1;rounded=0;entryX=1;entryY=0.5;entryDx=0;entryDy=0;exitX=0;exitY=0.5;exitDx=0;exitDy=0;" edge="1" parent="1" source="fJtaRyN5ISk2u794oa8O-73" target="fJtaRyN5ISk2u794oa8O-70">
          <mxGeometry width="50" height="50" relative="1" as="geometry">
            <mxPoint x="745" y="305" as="sourcePoint" />
            <mxPoint x="545" y="470" as="targetPoint" />
          </mxGeometry>
        </mxCell>
        <mxCell id="fJtaRyN5ISk2u794oa8O-73" value="Programm" style="rounded=0;whiteSpace=wrap;html=1;" vertex="1" parent="1">
          <mxGeometry x="730" y="285" width="70" height="40" as="geometry" />
        </mxCell>
        <mxCell id="fJtaRyN5ISk2u794oa8O-74" value="" style="endArrow=none;html=1;rounded=0;entryX=0.5;entryY=1;entryDx=0;entryDy=0;exitX=1;exitY=0.5;exitDx=0;exitDy=0;" edge="1" parent="1" source="fJtaRyN5ISk2u794oa8O-11" target="fJtaRyN5ISk2u794oa8O-70">
          <mxGeometry width="50" height="50" relative="1" as="geometry">
            <mxPoint x="510" y="520" as="sourcePoint" />
            <mxPoint x="560" y="470" as="targetPoint" />
            <Array as="points">
              <mxPoint x="690" y="615" />
            </Array>
          </mxGeometry>
        </mxCell>
        <mxCell id="fJtaRyN5ISk2u794oa8O-75" value="d" style="ellipse;whiteSpace=wrap;html=1;aspect=fixed;" vertex="1" parent="1">
          <mxGeometry x="487.5" y="340" width="25" height="25" as="geometry" />
        </mxCell>
        <mxCell id="fJtaRyN5ISk2u794oa8O-76" value="" style="endArrow=none;html=1;rounded=0;entryX=0.5;entryY=1;entryDx=0;entryDy=0;exitX=0.5;exitY=0;exitDx=0;exitDy=0;" edge="1" parent="1" source="fJtaRyN5ISk2u794oa8O-22" target="fJtaRyN5ISk2u794oa8O-75">
          <mxGeometry width="50" height="50" relative="1" as="geometry">
            <mxPoint x="510" y="520" as="sourcePoint" />
            <mxPoint x="560" y="470" as="targetPoint" />
          </mxGeometry>
        </mxCell>
        <mxCell id="fJtaRyN5ISk2u794oa8O-77" value="Standart" style="rounded=0;whiteSpace=wrap;html=1;" vertex="1" parent="1">
          <mxGeometry x="413" y="275" width="70" height="35" as="geometry" />
        </mxCell>
        <mxCell id="fJtaRyN5ISk2u794oa8O-78" value="Premium" style="rounded=0;whiteSpace=wrap;html=1;" vertex="1" parent="1">
          <mxGeometry x="540" y="275" width="70" height="35" as="geometry" />
        </mxCell>
        <mxCell id="fJtaRyN5ISk2u794oa8O-79" value="" style="endArrow=none;html=1;rounded=0;entryX=0.5;entryY=1;entryDx=0;entryDy=0;exitX=1;exitY=0.5;exitDx=0;exitDy=0;exitPerimeter=0;" edge="1" parent="1" source="fJtaRyN5ISk2u794oa8O-83" target="fJtaRyN5ISk2u794oa8O-77">
          <mxGeometry width="50" height="50" relative="1" as="geometry">
            <mxPoint x="270" y="515" as="sourcePoint" />
            <mxPoint x="320" y="465" as="targetPoint" />
          </mxGeometry>
        </mxCell>
        <mxCell id="fJtaRyN5ISk2u794oa8O-80" value="" style="endArrow=none;html=1;rounded=0;exitX=1;exitY=0.5;exitDx=0;exitDy=0;exitPerimeter=0;entryX=1;entryY=0;entryDx=0;entryDy=0;" edge="1" parent="1" source="fJtaRyN5ISk2u794oa8O-81" target="fJtaRyN5ISk2u794oa8O-75">
          <mxGeometry width="50" height="50" relative="1" as="geometry">
            <mxPoint x="350" y="515" as="sourcePoint" />
            <mxPoint x="400" y="465" as="targetPoint" />
            <Array as="points" />
          </mxGeometry>
        </mxCell>
        <mxCell id="fJtaRyN5ISk2u794oa8O-81" value="" style="shape=requiredInterface;html=1;verticalLabelPosition=bottom;sketch=0;rotation=-30;" vertex="1" parent="1">
          <mxGeometry x="530" y="325" width="10" height="20" as="geometry" />
        </mxCell>
        <mxCell id="fJtaRyN5ISk2u794oa8O-82" value="" style="endArrow=none;html=1;rounded=0;entryX=0.5;entryY=1;entryDx=0;entryDy=0;exitX=1;exitY=0.5;exitDx=0;exitDy=0;exitPerimeter=0;" edge="1" parent="1" source="fJtaRyN5ISk2u794oa8O-81" target="fJtaRyN5ISk2u794oa8O-78">
          <mxGeometry width="50" height="50" relative="1" as="geometry">
            <mxPoint x="510" y="520" as="sourcePoint" />
            <mxPoint x="560" y="470" as="targetPoint" />
          </mxGeometry>
        </mxCell>
        <mxCell id="fJtaRyN5ISk2u794oa8O-83" value="" style="shape=requiredInterface;html=1;verticalLabelPosition=bottom;sketch=0;rotation=-119;" vertex="1" parent="1">
          <mxGeometry x="460" y="320" width="10" height="20" as="geometry" />
        </mxCell>
        <mxCell id="fJtaRyN5ISk2u794oa8O-84" value="" style="endArrow=none;html=1;rounded=0;entryX=1;entryY=0.5;entryDx=0;entryDy=0;entryPerimeter=0;exitX=0;exitY=0;exitDx=0;exitDy=0;" edge="1" parent="1" source="fJtaRyN5ISk2u794oa8O-75" target="fJtaRyN5ISk2u794oa8O-83">
          <mxGeometry width="50" height="50" relative="1" as="geometry">
            <mxPoint x="510" y="520" as="sourcePoint" />
            <mxPoint x="560" y="470" as="targetPoint" />
          </mxGeometry>
        </mxCell>
        <mxCell id="fJtaRyN5ISk2u794oa8O-90" value="Recruiter" style="swimlane;childLayout=stackLayout;horizontal=1;startSize=30;horizontalStack=0;rounded=1;fontSize=14;fontStyle=0;strokeWidth=2;resizeParent=0;resizeLast=1;shadow=0;dashed=0;align=center;" vertex="1" parent="1">
          <mxGeometry x="20" y="890" width="200" height="210" as="geometry" />
        </mxCell>
        <mxCell id="fJtaRyN5ISk2u794oa8O-91" value="+Organization Name&#xa;+Registration Number(primary key)&#xa;+Adress(composite):&#xa;    Street&#xa;    Neighborhood&#xa;    Apt. Number&#xa;+Contact Info(composite):&#xa;    Name&#xa;    Surname&#xa;    Job Title&#xa;    E-mail&#xa;    Phone&#xa;" style="align=left;strokeColor=none;fillColor=none;spacingLeft=4;fontSize=12;verticalAlign=top;resizable=0;rotatable=0;part=1;" vertex="1" parent="fJtaRyN5ISk2u794oa8O-90">
          <mxGeometry y="30" width="200" height="180" as="geometry" />
        </mxCell>
      </root>
    </mxGraphModel>
  </diagram>
</mxfile>
